<?xml version="1.0" encoding="utf-8" standalone="no"?>
<!DOCTYPE svg PUBLIC "-//W3C//DTD SVG 1.1//EN"
  "http://www.w3.org/Graphics/SVG/1.1/DTD/svg11.dtd">
<svg xmlns:xlink="http://www.w3.org/1999/xlink" width="770.4pt" height="309.6pt" viewBox="0 0 770.4 309.6" xmlns="http://www.w3.org/2000/svg" version="1.1">
 <metadata>
  <rdf:RDF xmlns:dc="http://purl.org/dc/elements/1.1/" xmlns:cc="http://creativecommons.org/ns#" xmlns:rdf="http://www.w3.org/1999/02/22-rdf-syntax-ns#">
   <cc:Work>
    <dc:type rdf:resource="http://purl.org/dc/dcmitype/StillImage"/>
    <dc:date>2026-04-16T22:40:05.870443</dc:date>
    <dc:format>image/svg+xml</dc:format>
    <dc:creator>
     <cc:Agent>
      <dc:title>Matplotlib v3.8.4, https://matplotlib.org/</dc:title>
     </cc:Agent>
    </dc:creator>
   </cc:Work>
  </rdf:RDF>
 </metadata>
 <defs>
  <style type="text/css">*{stroke-linejoin: round; stroke-linecap: butt}</style>
 </defs>
 <g id="figure_1">
  <g id="patch_1">
   <path d="M 0 309.6 
L 770.4 309.6 
L 770.4 0 
L 0 0 
z
" style="fill: #f7f5f0"/>
  </g>
  <g id="axes_1">
   <g id="patch_2">
    <path d="M 7.2 302.4 
L 763.2 302.4 
L 763.2 7.2 
L 7.2 7.2 
z
" style="fill: #f7f5f0"/>
   </g>
   <g id="line2d_1">
    <path d="M 63.9 104.616 
L 83.170588 97.156667 
L 102.441176 91.931894 
L 121.711765 90.506845 
L 140.982353 93.308415 
L 160.252941 99.49735 
L 179.523529 107.219657 
L 198.794118 114.161998 
L 218.064706 118.244685 
L 237.335294 118.244685 
L 256.605882 114.161998 
L 275.876471 107.219657 
L 295.147059 99.49735 
L 314.417647 93.308415 
L 333.688235 90.506845 
L 352.958824 91.931894 
L 372.229412 97.156667 
L 391.5 104.616 
" clip-path="url(#p440ad2ea96)" style="fill: none; stroke: #d4dbe6; stroke-linecap: square"/>
   </g>
   <g id="patch_3">
    <path d="M 63.9 111.7008 
C 65.904935 111.7008 67.828024 110.954301 69.245727 109.62571 
C 70.663431 108.297119 71.46 106.494911 71.46 104.616 
C 71.46 102.737089 70.663431 100.934881 69.245727 99.60629 
C 67.828024 98.277699 65.904935 97.5312 63.9 97.5312 
C 61.895065 97.5312 59.971976 98.277699 58.554273 99.60629 
C 57.136569 100.934881 56.34 102.737089 56.34 104.616 
C 56.34 106.494911 57.136569 108.297119 58.554273 109.62571 
C 59.971976 110.954301 61.895065 111.7008 63.9 111.7008 
z
" clip-path="url(#p440ad2ea96)" style="fill: #c7d0dd; stroke: #a9b4c5; stroke-width: 1.1; stroke-linejoin: miter"/>
   </g>
   <g id="patch_4">
    <path d="M 83.170588 104.241467 
C 85.175524 104.241467 87.098612 103.494968 88.516316 102.166377 
C 89.934019 100.837786 90.730588 99.035578 90.730588 97.156667 
C 90.730588 95.277756 89.934019 93.475547 88.516316 92.146957 
C 87.098612 90.818366 85.175524 90.071867 83.170588 90.071867 
C 81.165653 90.071867 79.242564 90.818366 77.824861 92.146957 
C 76.407158 93.475547 75.610588 95.277756 75.610588 97.156667 
C 75.610588 99.035578 76.407158 100.837786 77.824861 102.166377 
C 79.242564 103.494968 81.165653 104.241467 83.170588 104.241467 
z
" clip-path="url(#p440ad2ea96)" style="fill: #0d776a; stroke: #0d776a; stroke-width: 1.1; stroke-linejoin: miter"/>
   </g>
   <g id="patch_5">
    <path d="M 102.441176 99.016694 
C 104.446112 99.016694 106.3692 98.270195 107.786904 96.941604 
C 109.204607 95.613014 110.001176 93.810805 110.001176 91.931894 
C 110.001176 90.052983 109.204607 88.250775 107.786904 86.922184 
C 106.3692 85.593593 104.446112 84.847094 102.441176 84.847094 
C 100.436241 84.847094 98.513153 85.593593 97.095449 86.922184 
C 95.677746 88.250775 94.881176 90.052983 94.881176 91.931894 
C 94.881176 93.810805 95.677746 95.613014 97.095449 96.941604 
C 98.513153 98.270195 100.436241 99.016694 102.441176 99.016694 
z
" clip-path="url(#p440ad2ea96)" style="fill: #c7d0dd; stroke: #a9b4c5; stroke-width: 1.1; stroke-linejoin: miter"/>
   </g>
   <g id="patch_6">
    <path d="M 121.711765 97.591645 
C 123.7167 97.591645 125.639789 96.845146 127.057492 95.516555 
C 128.475195 94.187964 129.271765 92.385756 129.271765 90.506845 
C 129.271765 88.627934 128.475195 86.825726 127.057492 85.497135 
C 125.639789 84.168544 123.7167 83.422045 121.711765 83.422045 
C 119.706829 83.422045 117.783741 84.168544 116.366037 85.497135 
C 114.948334 86.825726 114.151765 88.627934 114.151765 90.506845 
C 114.151765 92.385756 114.948334 94.187964 116.366037 95.516555 
C 117.783741 96.845146 119.706829 97.591645 121.711765 97.591645 
z
" clip-path="url(#p440ad2ea96)" style="fill: #c7d0dd; stroke: #a9b4c5; stroke-width: 1.1; stroke-linejoin: miter"/>
   </g>
   <g id="patch_7">
    <path d="M 140.982353 100.393215 
C 142.987288 100.393215 144.910377 99.646716 146.32808 98.318125 
C 147.745784 96.989535 148.542353 95.187326 148.542353 93.308415 
C 148.542353 91.429504 147.745784 89.627296 146.32808 88.298705 
C 144.910377 86.970114 142.987288 86.223615 140.982353 86.223615 
C 138.977418 86.223615 137.054329 86.970114 135.636626 88.298705 
C 134.218922 89.627296 133.422353 91.429504 133.422353 93.308415 
C 133.422353 95.187326 134.218922 96.989535 135.636626 98.318125 
C 137.054329 99.646716 138.977418 100.393215 140.982353 100.393215 
z
" clip-path="url(#p440ad2ea96)" style="fill: #0d776a; stroke: #0d776a; stroke-width: 1.1; stroke-linejoin: miter"/>
   </g>
   <g id="patch_8">
    <path d="M 160.252941 106.58215 
C 162.257877 106.58215 164.180965 105.835651 165.598668 104.50706 
C 167.016372 103.17847 167.812941 101.376261 167.812941 99.49735 
C 167.812941 97.618439 167.016372 95.816231 165.598668 94.48764 
C 164.180965 93.159049 162.257877 92.41255 160.252941 92.41255 
C 158.248006 92.41255 156.324917 93.159049 154.907214 94.48764 
C 153.48951 95.816231 152.692941 97.618439 152.692941 99.49735 
C 152.692941 101.376261 153.48951 103.17847 154.907214 104.50706 
C 156.324917 105.835651 158.248006 106.58215 160.252941 106.58215 
z
" clip-path="url(#p440ad2ea96)" style="fill: #c7d0dd; stroke: #a9b4c5; stroke-width: 1.1; stroke-linejoin: miter"/>
   </g>
   <g id="patch_9">
    <path d="M 179.523529 114.304457 
C 181.528465 114.304457 183.451553 113.557958 184.869257 112.229367 
C 186.28696 110.900777 187.083529 109.098568 187.083529 107.219657 
C 187.083529 105.340746 186.28696 103.538538 184.869257 102.209947 
C 183.451553 100.881356 181.528465 100.134857 179.523529 100.134857 
C 177.518594 100.134857 175.595506 100.881356 174.177802 102.209947 
C 172.760099 103.538538 171.963529 105.340746 171.963529 107.219657 
C 171.963529 109.098568 172.760099 110.900777 174.177802 112.229367 
C 175.595506 113.557958 177.518594 114.304457 179.523529 114.304457 
z
" clip-path="url(#p440ad2ea96)" style="fill: #c7d0dd; stroke: #a9b4c5; stroke-width: 1.1; stroke-linejoin: miter"/>
   </g>
   <g id="patch_10">
    <path d="M 198.794118 121.246798 
C 200.799053 121.246798 202.722141 120.500299 204.139845 119.171708 
C 205.557548 117.843117 206.354118 116.040909 206.354118 114.161998 
C 206.354118 112.283087 205.557548 110.480878 204.139845 109.152288 
C 202.722141 107.823697 200.799053 107.077198 198.794118 107.077198 
C 196.789182 107.077198 194.866094 107.823697 193.44839 109.152288 
C 192.030687 110.480878 191.234118 112.283087 191.234118 114.161998 
C 191.234118 116.040909 192.030687 117.843117 193.44839 119.171708 
C 194.866094 120.500299 196.789182 121.246798 198.794118 121.246798 
z
" clip-path="url(#p440ad2ea96)" style="fill: #0d776a; stroke: #0d776a; stroke-width: 1.1; stroke-linejoin: miter"/>
   </g>
   <g id="patch_11">
    <path d="M 218.064706 125.329485 
C 220.069641 125.329485 221.99273 124.582985 223.410433 123.254395 
C 224.828137 121.925804 225.624706 120.123596 225.624706 118.244685 
C 225.624706 116.365774 224.828137 114.563565 223.410433 113.234975 
C 221.99273 111.906384 220.069641 111.159885 218.064706 111.159885 
C 216.05977 111.159885 214.136682 111.906384 212.718979 113.234975 
C 211.301275 114.563565 210.504706 116.365774 210.504706 118.244685 
C 210.504706 120.123596 211.301275 121.925804 212.718979 123.254395 
C 214.136682 124.582985 216.05977 125.329485 218.064706 125.329485 
z
" clip-path="url(#p440ad2ea96)" style="fill: #c7d0dd; stroke: #a9b4c5; stroke-width: 1.1; stroke-linejoin: miter"/>
   </g>
   <g id="patch_12">
    <path d="M 237.335294 125.329485 
C 239.34023 125.329485 241.263318 124.582985 242.681021 123.254395 
C 244.098725 121.925804 244.895294 120.123596 244.895294 118.244685 
C 244.895294 116.365774 244.098725 114.563565 242.681021 113.234975 
C 241.263318 111.906384 239.34023 111.159885 237.335294 111.159885 
C 235.330359 111.159885 233.40727 111.906384 231.989567 113.234975 
C 230.571863 114.563565 229.775294 116.365774 229.775294 118.244685 
C 229.775294 120.123596 230.571863 121.925804 231.989567 123.254395 
C 233.40727 124.582985 235.330359 125.329485 237.335294 125.329485 
z
" clip-path="url(#p440ad2ea96)" style="fill: #c7d0dd; stroke: #a9b4c5; stroke-width: 1.1; stroke-linejoin: miter"/>
   </g>
   <g id="patch_13">
    <path d="M 256.605882 121.246798 
C 258.610818 121.246798 260.533906 120.500299 261.95161 119.171708 
C 263.369313 117.843117 264.165882 116.040909 264.165882 114.161998 
C 264.165882 112.283087 263.369313 110.480878 261.95161 109.152288 
C 260.533906 107.823697 258.610818 107.077198 256.605882 107.077198 
C 254.600947 107.077198 252.677859 107.823697 251.260155 109.152288 
C 249.842452 110.480878 249.045882 112.283087 249.045882 114.161998 
C 249.045882 116.040909 249.842452 117.843117 251.260155 119.171708 
C 252.677859 120.500299 254.600947 121.246798 256.605882 121.246798 
z
" clip-path="url(#p440ad2ea96)" style="fill: #c7d0dd; stroke: #a9b4c5; stroke-width: 1.1; stroke-linejoin: miter"/>
   </g>
   <g id="patch_14">
    <path d="M 275.876471 114.304457 
C 277.881406 114.304457 279.804494 113.557958 281.222198 112.229367 
C 282.639901 110.900777 283.436471 109.098568 283.436471 107.219657 
C 283.436471 105.340746 282.639901 103.538538 281.222198 102.209947 
C 279.804494 100.881356 277.881406 100.134857 275.876471 100.134857 
C 273.871535 100.134857 271.948447 100.881356 270.530743 102.209947 
C 269.11304 103.538538 268.316471 105.340746 268.316471 107.219657 
C 268.316471 109.098568 269.11304 110.900777 270.530743 112.229367 
C 271.948447 113.557958 273.871535 114.304457 275.876471 114.304457 
z
" clip-path="url(#p440ad2ea96)" style="fill: #0d776a; stroke: #0d776a; stroke-width: 1.1; stroke-linejoin: miter"/>
   </g>
   <g id="patch_15">
    <path d="M 295.147059 106.58215 
C 297.151994 106.58215 299.075083 105.835651 300.492786 104.50706 
C 301.91049 103.17847 302.707059 101.376261 302.707059 99.49735 
C 302.707059 97.618439 301.91049 95.816231 300.492786 94.48764 
C 299.075083 93.159049 297.151994 92.41255 295.147059 92.41255 
C 293.142123 92.41255 291.219035 93.159049 289.801332 94.48764 
C 288.383628 95.816231 287.587059 97.618439 287.587059 99.49735 
C 287.587059 101.376261 288.383628 103.17847 289.801332 104.50706 
C 291.219035 105.835651 293.142123 106.58215 295.147059 106.58215 
z
" clip-path="url(#p440ad2ea96)" style="fill: #c7d0dd; stroke: #a9b4c5; stroke-width: 1.1; stroke-linejoin: miter"/>
   </g>
   <g id="patch_16">
    <path d="M 314.417647 100.393215 
C 316.422582 100.393215 318.345671 99.646716 319.763374 98.318125 
C 321.181078 96.989535 321.977647 95.187326 321.977647 93.308415 
C 321.977647 91.429504 321.181078 89.627296 319.763374 88.298705 
C 318.345671 86.970114 316.422582 86.223615 314.417647 86.223615 
C 312.412712 86.223615 310.489623 86.970114 309.07192 88.298705 
C 307.654216 89.627296 306.857647 91.429504 306.857647 93.308415 
C 306.857647 95.187326 307.654216 96.989535 309.07192 98.318125 
C 310.489623 99.646716 312.412712 100.393215 314.417647 100.393215 
z
" clip-path="url(#p440ad2ea96)" style="fill: #c7d0dd; stroke: #a9b4c5; stroke-width: 1.1; stroke-linejoin: miter"/>
   </g>
   <g id="patch_17">
    <path d="M 333.688235 97.591645 
C 335.693171 97.591645 337.616259 96.845146 339.033963 95.516555 
C 340.451666 94.187964 341.248235 92.385756 341.248235 90.506845 
C 341.248235 88.627934 340.451666 86.825726 339.033963 85.497135 
C 337.616259 84.168544 335.693171 83.422045 333.688235 83.422045 
C 331.6833 83.422045 329.760211 84.168544 328.342508 85.497135 
C 326.924805 86.825726 326.128235 88.627934 326.128235 90.506845 
C 326.128235 92.385756 326.924805 94.187964 328.342508 95.516555 
C 329.760211 96.845146 331.6833 97.591645 333.688235 97.591645 
z
" clip-path="url(#p440ad2ea96)" style="fill: #0d776a; stroke: #0d776a; stroke-width: 1.1; stroke-linejoin: miter"/>
   </g>
   <g id="patch_18">
    <path d="M 352.958824 99.016694 
C 354.963759 99.016694 356.886847 98.270195 358.304551 96.941604 
C 359.722254 95.613014 360.518824 93.810805 360.518824 91.931894 
C 360.518824 90.052983 359.722254 88.250775 358.304551 86.922184 
C 356.886847 85.593593 354.963759 84.847094 352.958824 84.847094 
C 350.953888 84.847094 349.0308 85.593593 347.613096 86.922184 
C 346.195393 88.250775 345.398824 90.052983 345.398824 91.931894 
C 345.398824 93.810805 346.195393 95.613014 347.613096 96.941604 
C 349.0308 98.270195 350.953888 99.016694 352.958824 99.016694 
z
" clip-path="url(#p440ad2ea96)" style="fill: #c7d0dd; stroke: #a9b4c5; stroke-width: 1.1; stroke-linejoin: miter"/>
   </g>
   <g id="patch_19">
    <path d="M 372.229412 104.241467 
C 374.234347 104.241467 376.157436 103.494968 377.575139 102.166377 
C 378.992842 100.837786 379.789412 99.035578 379.789412 97.156667 
C 379.789412 95.277756 378.992842 93.475547 377.575139 92.146957 
C 376.157436 90.818366 374.234347 90.071867 372.229412 90.071867 
C 370.224476 90.071867 368.301388 90.818366 366.883684 92.146957 
C 365.465981 93.475547 364.669412 95.277756 364.669412 97.156667 
C 364.669412 99.035578 365.465981 100.837786 366.883684 102.166377 
C 368.301388 103.494968 370.224476 104.241467 372.229412 104.241467 
z
" clip-path="url(#p440ad2ea96)" style="fill: #0d776a; stroke: #0d776a; stroke-width: 1.1; stroke-linejoin: miter"/>
   </g>
   <g id="patch_20">
    <path d="M 391.5 111.7008 
C 393.504935 111.7008 395.428024 110.954301 396.845727 109.62571 
C 398.263431 108.297119 399.06 106.494911 399.06 104.616 
C 399.06 102.737089 398.263431 100.934881 396.845727 99.60629 
C 395.428024 98.277699 393.504935 97.5312 391.5 97.5312 
C 389.495065 97.5312 387.571976 98.277699 386.154273 99.60629 
C 384.736569 100.934881 383.94 102.737089 383.94 104.616 
C 383.94 106.494911 384.736569 108.297119 386.154273 109.62571 
C 387.571976 110.954301 389.495065 111.7008 391.5 111.7008 
z
" clip-path="url(#p440ad2ea96)" style="fill: #c7d0dd; stroke: #a9b4c5; stroke-width: 1.1; stroke-linejoin: miter"/>
   </g>
   <g id="patch_21">
    <path d="M 66.42 181.368 
L 73.98 181.368 
L 73.98 164.8368 
L 66.42 164.8368 
z
" clip-path="url(#p440ad2ea96)" style="fill: #0d776a; stroke: #a9b4c5; stroke-width: 0.7; stroke-linejoin: miter"/>
   </g>
   <g id="patch_22">
    <path d="M 66.42 209.1168 
L 73.98 209.1168 
L 73.98 192.5856 
L 66.42 192.5856 
z
" clip-path="url(#p440ad2ea96)" style="fill: #0d776a; stroke: #a9b4c5; stroke-width: 0.8; stroke-linejoin: miter"/>
   </g>
   <g id="patch_23">
    <path d="M 79.237241 181.368 
L 86.797241 181.368 
L 86.797241 164.8368 
L 79.237241 164.8368 
z
" clip-path="url(#p440ad2ea96)" style="fill: #0d776a; stroke: #a9b4c5; stroke-width: 0.7; stroke-linejoin: miter"/>
   </g>
   <g id="patch_24">
    <path d="M 79.237241 209.1168 
L 86.797241 209.1168 
L 86.797241 192.5856 
L 79.237241 192.5856 
z
" clip-path="url(#p440ad2ea96)" style="fill: #0d776a; stroke: #a9b4c5; stroke-width: 0.8; stroke-linejoin: miter"/>
   </g>
   <g id="patch_25">
    <path d="M 92.054483 181.368 
L 99.614483 181.368 
L 99.614483 164.8368 
L 92.054483 164.8368 
z
" clip-path="url(#p440ad2ea96)" style="fill: #f2f4f8; stroke: #a9b4c5; stroke-width: 0.7; stroke-linejoin: miter"/>
   </g>
   <g id="patch_26">
    <path d="M 92.054483 209.1168 
L 99.614483 209.1168 
L 99.614483 192.5856 
L 92.054483 192.5856 
z
" clip-path="url(#p440ad2ea96)" style="fill: #f2f4f8; stroke: #a9b4c5; stroke-width: 0.8; stroke-linejoin: miter"/>
   </g>
   <g id="patch_27">
    <path d="M 104.871724 181.368 
L 112.431724 181.368 
L 112.431724 164.8368 
L 104.871724 164.8368 
z
" clip-path="url(#p440ad2ea96)" style="fill: #0d776a; stroke: #a9b4c5; stroke-width: 0.7; stroke-linejoin: miter"/>
   </g>
   <g id="patch_28">
    <path d="M 104.871724 209.1168 
L 112.431724 209.1168 
L 112.431724 192.5856 
L 104.871724 192.5856 
z
" clip-path="url(#p440ad2ea96)" style="fill: #0d776a; stroke: #a9b4c5; stroke-width: 0.8; stroke-linejoin: miter"/>
   </g>
   <g id="patch_29">
    <path d="M 117.688966 181.368 
L 125.248966 181.368 
L 125.248966 164.8368 
L 117.688966 164.8368 
z
" clip-path="url(#p440ad2ea96)" style="fill: #f2f4f8; stroke: #a9b4c5; stroke-width: 0.7; stroke-linejoin: miter"/>
   </g>
   <g id="patch_30">
    <path d="M 117.688966 209.1168 
L 125.248966 209.1168 
L 125.248966 192.5856 
L 117.688966 192.5856 
z
" clip-path="url(#p440ad2ea96)" style="fill: #f2f4f8; stroke: #a9b4c5; stroke-width: 0.8; stroke-linejoin: miter"/>
   </g>
   <g id="patch_31">
    <path d="M 130.506207 181.368 
L 138.066207 181.368 
L 138.066207 164.8368 
L 130.506207 164.8368 
z
" clip-path="url(#p440ad2ea96)" style="fill: #0d776a; stroke: #a9b4c5; stroke-width: 0.7; stroke-linejoin: miter"/>
   </g>
   <g id="patch_32">
    <path d="M 130.506207 209.1168 
L 138.066207 209.1168 
L 138.066207 192.5856 
L 130.506207 192.5856 
z
" clip-path="url(#p440ad2ea96)" style="fill: #f2f4f8; stroke: #b85c2e; stroke-width: 1.7; stroke-linejoin: miter"/>
   </g>
   <g id="patch_33">
    <path d="M 143.323448 181.368 
L 150.883448 181.368 
L 150.883448 164.8368 
L 143.323448 164.8368 
z
" clip-path="url(#p440ad2ea96)" style="fill: #0d776a; stroke: #a9b4c5; stroke-width: 0.7; stroke-linejoin: miter"/>
   </g>
   <g id="patch_34">
    <path d="M 143.323448 209.1168 
L 150.883448 209.1168 
L 150.883448 192.5856 
L 143.323448 192.5856 
z
" clip-path="url(#p440ad2ea96)" style="fill: #0d776a; stroke: #a9b4c5; stroke-width: 0.8; stroke-linejoin: miter"/>
   </g>
   <g id="patch_35">
    <path d="M 156.14069 181.368 
L 163.70069 181.368 
L 163.70069 164.8368 
L 156.14069 164.8368 
z
" clip-path="url(#p440ad2ea96)" style="fill: #f2f4f8; stroke: #a9b4c5; stroke-width: 0.7; stroke-linejoin: miter"/>
   </g>
   <g id="patch_36">
    <path d="M 156.14069 209.1168 
L 163.70069 209.1168 
L 163.70069 192.5856 
L 156.14069 192.5856 
z
" clip-path="url(#p440ad2ea96)" style="fill: #f2f4f8; stroke: #a9b4c5; stroke-width: 0.8; stroke-linejoin: miter"/>
   </g>
   <g id="patch_37">
    <path d="M 168.957931 181.368 
L 176.517931 181.368 
L 176.517931 164.8368 
L 168.957931 164.8368 
z
" clip-path="url(#p440ad2ea96)" style="fill: #0d776a; stroke: #a9b4c5; stroke-width: 0.7; stroke-linejoin: miter"/>
   </g>
   <g id="patch_38">
    <path d="M 168.957931 209.1168 
L 176.517931 209.1168 
L 176.517931 192.5856 
L 168.957931 192.5856 
z
" clip-path="url(#p440ad2ea96)" style="fill: #0d776a; stroke: #a9b4c5; stroke-width: 0.8; stroke-linejoin: miter"/>
   </g>
   <g id="patch_39">
    <path d="M 181.775172 181.368 
L 189.335172 181.368 
L 189.335172 164.8368 
L 181.775172 164.8368 
z
" clip-path="url(#p440ad2ea96)" style="fill: #f2f4f8; stroke: #a9b4c5; stroke-width: 0.7; stroke-linejoin: miter"/>
   </g>
   <g id="patch_40">
    <path d="M 181.775172 209.1168 
L 189.335172 209.1168 
L 189.335172 192.5856 
L 181.775172 192.5856 
z
" clip-path="url(#p440ad2ea96)" style="fill: #f2f4f8; stroke: #a9b4c5; stroke-width: 0.8; stroke-linejoin: miter"/>
   </g>
   <g id="patch_41">
    <path d="M 194.592414 181.368 
L 202.152414 181.368 
L 202.152414 164.8368 
L 194.592414 164.8368 
z
" clip-path="url(#p440ad2ea96)" style="fill: #0d776a; stroke: #a9b4c5; stroke-width: 0.7; stroke-linejoin: miter"/>
   </g>
   <g id="patch_42">
    <path d="M 194.592414 209.1168 
L 202.152414 209.1168 
L 202.152414 192.5856 
L 194.592414 192.5856 
z
" clip-path="url(#p440ad2ea96)" style="fill: #0d776a; stroke: #a9b4c5; stroke-width: 0.8; stroke-linejoin: miter"/>
   </g>
   <g id="patch_43">
    <path d="M 207.409655 181.368 
L 214.969655 181.368 
L 214.969655 164.8368 
L 207.409655 164.8368 
z
" clip-path="url(#p440ad2ea96)" style="fill: #0d776a; stroke: #a9b4c5; stroke-width: 0.7; stroke-linejoin: miter"/>
   </g>
   <g id="patch_44">
    <path d="M 207.409655 209.1168 
L 214.969655 209.1168 
L 214.969655 192.5856 
L 207.409655 192.5856 
z
" clip-path="url(#p440ad2ea96)" style="fill: #0d776a; stroke: #a9b4c5; stroke-width: 0.8; stroke-linejoin: miter"/>
   </g>
   <g id="patch_45">
    <path d="M 220.226897 181.368 
L 227.786897 181.368 
L 227.786897 164.8368 
L 220.226897 164.8368 
z
" clip-path="url(#p440ad2ea96)" style="fill: #f2f4f8; stroke: #a9b4c5; stroke-width: 0.7; stroke-linejoin: miter"/>
   </g>
   <g id="patch_46">
    <path d="M 220.226897 209.1168 
L 227.786897 209.1168 
L 227.786897 192.5856 
L 220.226897 192.5856 
z
" clip-path="url(#p440ad2ea96)" style="fill: #f2f4f8; stroke: #a9b4c5; stroke-width: 0.8; stroke-linejoin: miter"/>
   </g>
   <g id="patch_47">
    <path d="M 233.044138 181.368 
L 240.604138 181.368 
L 240.604138 164.8368 
L 233.044138 164.8368 
z
" clip-path="url(#p440ad2ea96)" style="fill: #0d776a; stroke: #a9b4c5; stroke-width: 0.7; stroke-linejoin: miter"/>
   </g>
   <g id="patch_48">
    <path d="M 233.044138 209.1168 
L 240.604138 209.1168 
L 240.604138 192.5856 
L 233.044138 192.5856 
z
" clip-path="url(#p440ad2ea96)" style="fill: #0d776a; stroke: #a9b4c5; stroke-width: 0.8; stroke-linejoin: miter"/>
   </g>
   <g id="patch_49">
    <path d="M 245.861379 181.368 
L 253.421379 181.368 
L 253.421379 164.8368 
L 245.861379 164.8368 
z
" clip-path="url(#p440ad2ea96)" style="fill: #0d776a; stroke: #a9b4c5; stroke-width: 0.7; stroke-linejoin: miter"/>
   </g>
   <g id="patch_50">
    <path d="M 245.861379 209.1168 
L 253.421379 209.1168 
L 253.421379 192.5856 
L 245.861379 192.5856 
z
" clip-path="url(#p440ad2ea96)" style="fill: #0d776a; stroke: #a9b4c5; stroke-width: 0.8; stroke-linejoin: miter"/>
   </g>
   <g id="patch_51">
    <path d="M 258.678621 181.368 
L 266.238621 181.368 
L 266.238621 164.8368 
L 258.678621 164.8368 
z
" clip-path="url(#p440ad2ea96)" style="fill: #f2f4f8; stroke: #a9b4c5; stroke-width: 0.7; stroke-linejoin: miter"/>
   </g>
   <g id="patch_52">
    <path d="M 258.678621 209.1168 
L 266.238621 209.1168 
L 266.238621 192.5856 
L 258.678621 192.5856 
z
" clip-path="url(#p440ad2ea96)" style="fill: #f2f4f8; stroke: #a9b4c5; stroke-width: 0.8; stroke-linejoin: miter"/>
   </g>
   <g id="patch_53">
    <path d="M 271.495862 181.368 
L 279.055862 181.368 
L 279.055862 164.8368 
L 271.495862 164.8368 
z
" clip-path="url(#p440ad2ea96)" style="fill: #0d776a; stroke: #a9b4c5; stroke-width: 0.7; stroke-linejoin: miter"/>
   </g>
   <g id="patch_54">
    <path d="M 271.495862 209.1168 
L 279.055862 209.1168 
L 279.055862 192.5856 
L 271.495862 192.5856 
z
" clip-path="url(#p440ad2ea96)" style="fill: #0d776a; stroke: #a9b4c5; stroke-width: 0.8; stroke-linejoin: miter"/>
   </g>
   <g id="patch_55">
    <path d="M 284.313103 181.368 
L 291.873103 181.368 
L 291.873103 164.8368 
L 284.313103 164.8368 
z
" clip-path="url(#p440ad2ea96)" style="fill: #f2f4f8; stroke: #a9b4c5; stroke-width: 0.7; stroke-linejoin: miter"/>
   </g>
   <g id="patch_56">
    <path d="M 284.313103 209.1168 
L 291.873103 209.1168 
L 291.873103 192.5856 
L 284.313103 192.5856 
z
" clip-path="url(#p440ad2ea96)" style="fill: #0d776a; stroke: #b85c2e; stroke-width: 1.7; stroke-linejoin: miter"/>
   </g>
   <g id="patch_57">
    <path d="M 297.130345 181.368 
L 304.690345 181.368 
L 304.690345 164.8368 
L 297.130345 164.8368 
z
" clip-path="url(#p440ad2ea96)" style="fill: #f2f4f8; stroke: #a9b4c5; stroke-width: 0.7; stroke-linejoin: miter"/>
   </g>
   <g id="patch_58">
    <path d="M 297.130345 209.1168 
L 304.690345 209.1168 
L 304.690345 192.5856 
L 297.130345 192.5856 
z
" clip-path="url(#p440ad2ea96)" style="fill: #f2f4f8; stroke: #a9b4c5; stroke-width: 0.8; stroke-linejoin: miter"/>
   </g>
   <g id="patch_59">
    <path d="M 309.947586 181.368 
L 317.507586 181.368 
L 317.507586 164.8368 
L 309.947586 164.8368 
z
" clip-path="url(#p440ad2ea96)" style="fill: #0d776a; stroke: #a9b4c5; stroke-width: 0.7; stroke-linejoin: miter"/>
   </g>
   <g id="patch_60">
    <path d="M 309.947586 209.1168 
L 317.507586 209.1168 
L 317.507586 192.5856 
L 309.947586 192.5856 
z
" clip-path="url(#p440ad2ea96)" style="fill: #0d776a; stroke: #a9b4c5; stroke-width: 0.8; stroke-linejoin: miter"/>
   </g>
   <g id="patch_61">
    <path d="M 322.764828 181.368 
L 330.324828 181.368 
L 330.324828 164.8368 
L 322.764828 164.8368 
z
" clip-path="url(#p440ad2ea96)" style="fill: #0d776a; stroke: #a9b4c5; stroke-width: 0.7; stroke-linejoin: miter"/>
   </g>
   <g id="patch_62">
    <path d="M 322.764828 209.1168 
L 330.324828 209.1168 
L 330.324828 192.5856 
L 322.764828 192.5856 
z
" clip-path="url(#p440ad2ea96)" style="fill: #0d776a; stroke: #a9b4c5; stroke-width: 0.8; stroke-linejoin: miter"/>
   </g>
   <g id="patch_63">
    <path d="M 335.582069 181.368 
L 343.142069 181.368 
L 343.142069 164.8368 
L 335.582069 164.8368 
z
" clip-path="url(#p440ad2ea96)" style="fill: #f2f4f8; stroke: #a9b4c5; stroke-width: 0.7; stroke-linejoin: miter"/>
   </g>
   <g id="patch_64">
    <path d="M 335.582069 209.1168 
L 343.142069 209.1168 
L 343.142069 192.5856 
L 335.582069 192.5856 
z
" clip-path="url(#p440ad2ea96)" style="fill: #f2f4f8; stroke: #a9b4c5; stroke-width: 0.8; stroke-linejoin: miter"/>
   </g>
   <g id="patch_65">
    <path d="M 348.39931 181.368 
L 355.95931 181.368 
L 355.95931 164.8368 
L 348.39931 164.8368 
z
" clip-path="url(#p440ad2ea96)" style="fill: #0d776a; stroke: #a9b4c5; stroke-width: 0.7; stroke-linejoin: miter"/>
   </g>
   <g id="patch_66">
    <path d="M 348.39931 209.1168 
L 355.95931 209.1168 
L 355.95931 192.5856 
L 348.39931 192.5856 
z
" clip-path="url(#p440ad2ea96)" style="fill: #0d776a; stroke: #a9b4c5; stroke-width: 0.8; stroke-linejoin: miter"/>
   </g>
   <g id="patch_67">
    <path d="M 361.216552 181.368 
L 368.776552 181.368 
L 368.776552 164.8368 
L 361.216552 164.8368 
z
" clip-path="url(#p440ad2ea96)" style="fill: #f2f4f8; stroke: #a9b4c5; stroke-width: 0.7; stroke-linejoin: miter"/>
   </g>
   <g id="patch_68">
    <path d="M 361.216552 209.1168 
L 368.776552 209.1168 
L 368.776552 192.5856 
L 361.216552 192.5856 
z
" clip-path="url(#p440ad2ea96)" style="fill: #f2f4f8; stroke: #a9b4c5; stroke-width: 0.8; stroke-linejoin: miter"/>
   </g>
   <g id="patch_69">
    <path d="M 374.033793 181.368 
L 381.593793 181.368 
L 381.593793 164.8368 
L 374.033793 164.8368 
z
" clip-path="url(#p440ad2ea96)" style="fill: #0d776a; stroke: #a9b4c5; stroke-width: 0.7; stroke-linejoin: miter"/>
   </g>
   <g id="patch_70">
    <path d="M 374.033793 209.1168 
L 381.593793 209.1168 
L 381.593793 192.5856 
L 374.033793 192.5856 
z
" clip-path="url(#p440ad2ea96)" style="fill: #0d776a; stroke: #a9b4c5; stroke-width: 0.8; stroke-linejoin: miter"/>
   </g>
   <g id="patch_71">
    <path d="M 386.851034 181.368 
L 394.411034 181.368 
L 394.411034 164.8368 
L 386.851034 164.8368 
z
" clip-path="url(#p440ad2ea96)" style="fill: #f2f4f8; stroke: #a9b4c5; stroke-width: 0.7; stroke-linejoin: miter"/>
   </g>
   <g id="patch_72">
    <path d="M 386.851034 209.1168 
L 394.411034 209.1168 
L 394.411034 192.5856 
L 386.851034 192.5856 
z
" clip-path="url(#p440ad2ea96)" style="fill: #f2f4f8; stroke: #a9b4c5; stroke-width: 0.8; stroke-linejoin: miter"/>
   </g>
   <g id="patch_73">
    <path d="M 399.668276 181.368 
L 407.228276 181.368 
L 407.228276 164.8368 
L 399.668276 164.8368 
z
" clip-path="url(#p440ad2ea96)" style="fill: #0d776a; stroke: #a9b4c5; stroke-width: 0.7; stroke-linejoin: miter"/>
   </g>
   <g id="patch_74">
    <path d="M 399.668276 209.1168 
L 407.228276 209.1168 
L 407.228276 192.5856 
L 399.668276 192.5856 
z
" clip-path="url(#p440ad2ea96)" style="fill: #0d776a; stroke: #a9b4c5; stroke-width: 0.8; stroke-linejoin: miter"/>
   </g>
   <g id="patch_75">
    <path d="M 412.485517 181.368 
L 420.045517 181.368 
L 420.045517 164.8368 
L 412.485517 164.8368 
z
" clip-path="url(#p440ad2ea96)" style="fill: #0d776a; stroke: #a9b4c5; stroke-width: 0.7; stroke-linejoin: miter"/>
   </g>
   <g id="patch_76">
    <path d="M 412.485517 209.1168 
L 420.045517 209.1168 
L 420.045517 192.5856 
L 412.485517 192.5856 
z
" clip-path="url(#p440ad2ea96)" style="fill: #0d776a; stroke: #a9b4c5; stroke-width: 0.8; stroke-linejoin: miter"/>
   </g>
   <g id="patch_77">
    <path d="M 425.302759 181.368 
L 432.862759 181.368 
L 432.862759 164.8368 
L 425.302759 164.8368 
z
" clip-path="url(#p440ad2ea96)" style="fill: #f2f4f8; stroke: #a9b4c5; stroke-width: 0.7; stroke-linejoin: miter"/>
   </g>
   <g id="patch_78">
    <path d="M 425.302759 209.1168 
L 432.862759 209.1168 
L 432.862759 192.5856 
L 425.302759 192.5856 
z
" clip-path="url(#p440ad2ea96)" style="fill: #f2f4f8; stroke: #a9b4c5; stroke-width: 0.8; stroke-linejoin: miter"/>
   </g>
   <g id="patch_79">
    <path d="M 438.12 181.368 
L 445.68 181.368 
L 445.68 164.8368 
L 438.12 164.8368 
z
" clip-path="url(#p440ad2ea96)" style="fill: #0d776a; stroke: #a9b4c5; stroke-width: 0.7; stroke-linejoin: miter"/>
   </g>
   <g id="patch_80">
    <path d="M 438.12 209.1168 
L 445.68 209.1168 
L 445.68 192.5856 
L 438.12 192.5856 
z
" clip-path="url(#p440ad2ea96)" style="fill: #0d776a; stroke: #a9b4c5; stroke-width: 0.8; stroke-linejoin: miter"/>
   </g>
   <g id="patch_81">
    <path d="M 465.952588 135.9072 
Q 489.151384 135.9072 510.784933 135.9072 
" clip-path="url(#p440ad2ea96)" style="fill: none; stroke: #667085; stroke-width: 1.4; stroke-linecap: round"/>
    <path d="M 505.184933 133.1072 
L 510.784933 135.9072 
L 505.184933 138.7072 
z
" clip-path="url(#p440ad2ea96)" style="fill: #667085; stroke: #667085; stroke-width: 1.4; stroke-linecap: round"/>
   </g>
   <g id="patch_82">
    <path d="M 530.1 101.664 
L 697.05 101.664 
L 697.05 70.9632 
L 530.1 70.9632 
z
" clip-path="url(#p440ad2ea96)" style="fill: #e3f2ed; stroke: #0d776a; stroke-width: 1.2; stroke-linejoin: miter"/>
   </g>
   <g id="patch_83">
    <path d="M 530.1 147.7152 
L 697.05 147.7152 
L 697.05 117.0144 
L 530.1 117.0144 
z
" clip-path="url(#p440ad2ea96)" style="fill: #f6ebdd; stroke: #b85c2e; stroke-width: 1.2; stroke-linejoin: miter"/>
   </g>
   <g id="patch_84">
    <path d="M 530.1 193.7664 
L 697.05 193.7664 
L 697.05 163.0656 
L 530.1 163.0656 
z
" clip-path="url(#p440ad2ea96)" style="fill: #edf1f7; stroke: #3658c7; stroke-width: 1.2; stroke-linejoin: miter"/>
   </g>
   <g id="matplotlib.axis_1"/>
   <g id="matplotlib.axis_2"/>
   <g id="text_1">
    <!-- Version-space compression selector -->
    <g style="fill: #182033" transform="translate(29.25 33.768) scale(0.1 -0.1)">
     <defs>
      <path id="DejaVuSans-Bold-56" d="M 31 4666 
L 1241 4666 
L 2478 1222 
L 3713 4666 
L 4922 4666 
L 3194 0 
L 1759 0 
L 31 4666 
z
" transform="scale(0.015625)"/>
      <path id="DejaVuSans-Bold-65" d="M 4031 1759 
L 4031 1441 
L 1416 1441 
Q 1456 1047 1700 850 
Q 1944 653 2381 653 
Q 2734 653 3104 758 
Q 3475 863 3866 1075 
L 3866 213 
Q 3469 63 3072 -14 
Q 2675 -91 2278 -91 
Q 1328 -91 801 392 
Q 275 875 275 1747 
Q 275 2603 792 3093 
Q 1309 3584 2216 3584 
Q 3041 3584 3536 3087 
Q 4031 2591 4031 1759 
z
M 2881 2131 
Q 2881 2450 2695 2645 
Q 2509 2841 2209 2841 
Q 1884 2841 1681 2658 
Q 1478 2475 1428 2131 
L 2881 2131 
z
" transform="scale(0.015625)"/>
      <path id="DejaVuSans-Bold-72" d="M 3138 2547 
Q 2991 2616 2845 2648 
Q 2700 2681 2553 2681 
Q 2122 2681 1889 2404 
Q 1656 2128 1656 1613 
L 1656 0 
L 538 0 
L 538 3500 
L 1656 3500 
L 1656 2925 
Q 1872 3269 2151 3426 
Q 2431 3584 2822 3584 
Q 2878 3584 2943 3579 
Q 3009 3575 3134 3559 
L 3138 2547 
z
" transform="scale(0.015625)"/>
      <path id="DejaVuSans-Bold-73" d="M 3272 3391 
L 3272 2541 
Q 2913 2691 2578 2766 
Q 2244 2841 1947 2841 
Q 1628 2841 1473 2761 
Q 1319 2681 1319 2516 
Q 1319 2381 1436 2309 
Q 1553 2238 1856 2203 
L 2053 2175 
Q 2913 2066 3209 1816 
Q 3506 1566 3506 1031 
Q 3506 472 3093 190 
Q 2681 -91 1863 -91 
Q 1516 -91 1145 -36 
Q 775 19 384 128 
L 384 978 
Q 719 816 1070 734 
Q 1422 653 1784 653 
Q 2113 653 2278 743 
Q 2444 834 2444 1013 
Q 2444 1163 2330 1236 
Q 2216 1309 1875 1350 
L 1678 1375 
Q 931 1469 631 1722 
Q 331 1975 331 2491 
Q 331 3047 712 3315 
Q 1094 3584 1881 3584 
Q 2191 3584 2531 3537 
Q 2872 3491 3272 3391 
z
" transform="scale(0.015625)"/>
      <path id="DejaVuSans-Bold-69" d="M 538 3500 
L 1656 3500 
L 1656 0 
L 538 0 
L 538 3500 
z
M 538 4863 
L 1656 4863 
L 1656 3950 
L 538 3950 
L 538 4863 
z
" transform="scale(0.015625)"/>
      <path id="DejaVuSans-Bold-6f" d="M 2203 2784 
Q 1831 2784 1636 2517 
Q 1441 2250 1441 1747 
Q 1441 1244 1636 976 
Q 1831 709 2203 709 
Q 2569 709 2762 976 
Q 2956 1244 2956 1747 
Q 2956 2250 2762 2517 
Q 2569 2784 2203 2784 
z
M 2203 3584 
Q 3106 3584 3614 3096 
Q 4122 2609 4122 1747 
Q 4122 884 3614 396 
Q 3106 -91 2203 -91 
Q 1297 -91 786 396 
Q 275 884 275 1747 
Q 275 2609 786 3096 
Q 1297 3584 2203 3584 
z
" transform="scale(0.015625)"/>
      <path id="DejaVuSans-Bold-6e" d="M 4056 2131 
L 4056 0 
L 2931 0 
L 2931 347 
L 2931 1631 
Q 2931 2084 2911 2256 
Q 2891 2428 2841 2509 
Q 2775 2619 2662 2680 
Q 2550 2741 2406 2741 
Q 2056 2741 1856 2470 
Q 1656 2200 1656 1722 
L 1656 0 
L 538 0 
L 538 3500 
L 1656 3500 
L 1656 2988 
Q 1909 3294 2193 3439 
Q 2478 3584 2822 3584 
Q 3428 3584 3742 3212 
Q 4056 2841 4056 2131 
z
" transform="scale(0.015625)"/>
      <path id="DejaVuSans-Bold-2d" d="M 347 2297 
L 2309 2297 
L 2309 1388 
L 347 1388 
L 347 2297 
z
" transform="scale(0.015625)"/>
      <path id="DejaVuSans-Bold-70" d="M 1656 506 
L 1656 -1331 
L 538 -1331 
L 538 3500 
L 1656 3500 
L 1656 2988 
Q 1888 3294 2169 3439 
Q 2450 3584 2816 3584 
Q 3463 3584 3878 3070 
Q 4294 2556 4294 1747 
Q 4294 938 3878 423 
Q 3463 -91 2816 -91 
Q 2450 -91 2169 54 
Q 1888 200 1656 506 
z
M 2400 2772 
Q 2041 2772 1848 2508 
Q 1656 2244 1656 1747 
Q 1656 1250 1848 986 
Q 2041 722 2400 722 
Q 2759 722 2948 984 
Q 3138 1247 3138 1747 
Q 3138 2247 2948 2509 
Q 2759 2772 2400 2772 
z
" transform="scale(0.015625)"/>
      <path id="DejaVuSans-Bold-61" d="M 2106 1575 
Q 1756 1575 1579 1456 
Q 1403 1338 1403 1106 
Q 1403 894 1545 773 
Q 1688 653 1941 653 
Q 2256 653 2472 879 
Q 2688 1106 2688 1447 
L 2688 1575 
L 2106 1575 
z
M 3816 1997 
L 3816 0 
L 2688 0 
L 2688 519 
Q 2463 200 2181 54 
Q 1900 -91 1497 -91 
Q 953 -91 614 226 
Q 275 544 275 1050 
Q 275 1666 698 1953 
Q 1122 2241 2028 2241 
L 2688 2241 
L 2688 2328 
Q 2688 2594 2478 2717 
Q 2269 2841 1825 2841 
Q 1466 2841 1156 2769 
Q 847 2697 581 2553 
L 581 3406 
Q 941 3494 1303 3539 
Q 1666 3584 2028 3584 
Q 2975 3584 3395 3211 
Q 3816 2838 3816 1997 
z
" transform="scale(0.015625)"/>
      <path id="DejaVuSans-Bold-63" d="M 3366 3391 
L 3366 2478 
Q 3138 2634 2908 2709 
Q 2678 2784 2431 2784 
Q 1963 2784 1702 2511 
Q 1441 2238 1441 1747 
Q 1441 1256 1702 982 
Q 1963 709 2431 709 
Q 2694 709 2930 787 
Q 3166 866 3366 1019 
L 3366 103 
Q 3103 6 2833 -42 
Q 2563 -91 2291 -91 
Q 1344 -91 809 395 
Q 275 881 275 1747 
Q 275 2613 809 3098 
Q 1344 3584 2291 3584 
Q 2566 3584 2833 3536 
Q 3100 3488 3366 3391 
z
" transform="scale(0.015625)"/>
      <path id="DejaVuSans-Bold-20" transform="scale(0.015625)"/>
      <path id="DejaVuSans-Bold-6d" d="M 3781 2919 
Q 3994 3244 4286 3414 
Q 4578 3584 4928 3584 
Q 5531 3584 5847 3212 
Q 6163 2841 6163 2131 
L 6163 0 
L 5038 0 
L 5038 1825 
Q 5041 1866 5042 1909 
Q 5044 1953 5044 2034 
Q 5044 2406 4934 2573 
Q 4825 2741 4581 2741 
Q 4263 2741 4089 2478 
Q 3916 2216 3909 1719 
L 3909 0 
L 2784 0 
L 2784 1825 
Q 2784 2406 2684 2573 
Q 2584 2741 2328 2741 
Q 2006 2741 1831 2477 
Q 1656 2213 1656 1722 
L 1656 0 
L 531 0 
L 531 3500 
L 1656 3500 
L 1656 2988 
Q 1863 3284 2130 3434 
Q 2397 3584 2719 3584 
Q 3081 3584 3359 3409 
Q 3638 3234 3781 2919 
z
" transform="scale(0.015625)"/>
      <path id="DejaVuSans-Bold-6c" d="M 538 4863 
L 1656 4863 
L 1656 0 
L 538 0 
L 538 4863 
z
" transform="scale(0.015625)"/>
      <path id="DejaVuSans-Bold-74" d="M 1759 4494 
L 1759 3500 
L 2913 3500 
L 2913 2700 
L 1759 2700 
L 1759 1216 
Q 1759 972 1856 886 
Q 1953 800 2241 800 
L 2816 800 
L 2816 0 
L 1856 0 
Q 1194 0 917 276 
Q 641 553 641 1216 
L 641 2700 
L 84 2700 
L 84 3500 
L 641 3500 
L 641 4494 
L 1759 4494 
z
" transform="scale(0.015625)"/>
     </defs>
     <use xlink:href="#DejaVuSans-Bold-56"/>
     <use xlink:href="#DejaVuSans-Bold-65" x="71.892578"/>
     <use xlink:href="#DejaVuSans-Bold-72" x="139.714844"/>
     <use xlink:href="#DejaVuSans-Bold-73" x="189.03125"/>
     <use xlink:href="#DejaVuSans-Bold-69" x="248.552734"/>
     <use xlink:href="#DejaVuSans-Bold-6f" x="282.830078"/>
     <use xlink:href="#DejaVuSans-Bold-6e" x="351.53125"/>
     <use xlink:href="#DejaVuSans-Bold-2d" x="422.722656"/>
     <use xlink:href="#DejaVuSans-Bold-73" x="464.226562"/>
     <use xlink:href="#DejaVuSans-Bold-70" x="523.748047"/>
     <use xlink:href="#DejaVuSans-Bold-61" x="595.330078"/>
     <use xlink:href="#DejaVuSans-Bold-63" x="662.810547"/>
     <use xlink:href="#DejaVuSans-Bold-65" x="722.087891"/>
     <use xlink:href="#DejaVuSans-Bold-20" x="789.910156"/>
     <use xlink:href="#DejaVuSans-Bold-63" x="824.724609"/>
     <use xlink:href="#DejaVuSans-Bold-6f" x="884.001953"/>
     <use xlink:href="#DejaVuSans-Bold-6d" x="952.703125"/>
     <use xlink:href="#DejaVuSans-Bold-70" x="1056.902344"/>
     <use xlink:href="#DejaVuSans-Bold-72" x="1128.484375"/>
     <use xlink:href="#DejaVuSans-Bold-65" x="1177.800781"/>
     <use xlink:href="#DejaVuSans-Bold-73" x="1245.623047"/>
     <use xlink:href="#DejaVuSans-Bold-73" x="1305.144531"/>
     <use xlink:href="#DejaVuSans-Bold-69" x="1364.666016"/>
     <use xlink:href="#DejaVuSans-Bold-6f" x="1398.943359"/>
     <use xlink:href="#DejaVuSans-Bold-6e" x="1467.644531"/>
     <use xlink:href="#DejaVuSans-Bold-20" x="1538.835938"/>
     <use xlink:href="#DejaVuSans-Bold-73" x="1573.650391"/>
     <use xlink:href="#DejaVuSans-Bold-65" x="1633.171875"/>
     <use xlink:href="#DejaVuSans-Bold-6c" x="1700.994141"/>
     <use xlink:href="#DejaVuSans-Bold-65" x="1735.271484"/>
     <use xlink:href="#DejaVuSans-Bold-63" x="1803.09375"/>
     <use xlink:href="#DejaVuSans-Bold-74" x="1862.371094"/>
     <use xlink:href="#DejaVuSans-Bold-6f" x="1910.173828"/>
     <use xlink:href="#DejaVuSans-Bold-72" x="1978.875"/>
    </g>
   </g>
   <g id="text_2">
    <!-- Retain checkpoints that preserve source-support disagreement, not merely adjacent time steps. -->
    <g style="fill: #667085" transform="translate(29.25 55.6128) scale(0.1 -0.1)">
     <defs>
      <path id="DejaVuSans-52" d="M 2841 2188 
Q 3044 2119 3236 1894 
Q 3428 1669 3622 1275 
L 4263 0 
L 3584 0 
L 2988 1197 
Q 2756 1666 2539 1819 
Q 2322 1972 1947 1972 
L 1259 1972 
L 1259 0 
L 628 0 
L 628 4666 
L 2053 4666 
Q 2853 4666 3247 4331 
Q 3641 3997 3641 3322 
Q 3641 2881 3436 2590 
Q 3231 2300 2841 2188 
z
M 1259 4147 
L 1259 2491 
L 2053 2491 
Q 2509 2491 2742 2702 
Q 2975 2913 2975 3322 
Q 2975 3731 2742 3939 
Q 2509 4147 2053 4147 
L 1259 4147 
z
" transform="scale(0.015625)"/>
      <path id="DejaVuSans-65" d="M 3597 1894 
L 3597 1613 
L 953 1613 
Q 991 1019 1311 708 
Q 1631 397 2203 397 
Q 2534 397 2845 478 
Q 3156 559 3463 722 
L 3463 178 
Q 3153 47 2828 -22 
Q 2503 -91 2169 -91 
Q 1331 -91 842 396 
Q 353 884 353 1716 
Q 353 2575 817 3079 
Q 1281 3584 2069 3584 
Q 2775 3584 3186 3129 
Q 3597 2675 3597 1894 
z
M 3022 2063 
Q 3016 2534 2758 2815 
Q 2500 3097 2075 3097 
Q 1594 3097 1305 2825 
Q 1016 2553 972 2059 
L 3022 2063 
z
" transform="scale(0.015625)"/>
      <path id="DejaVuSans-74" d="M 1172 4494 
L 1172 3500 
L 2356 3500 
L 2356 3053 
L 1172 3053 
L 1172 1153 
Q 1172 725 1289 603 
Q 1406 481 1766 481 
L 2356 481 
L 2356 0 
L 1766 0 
Q 1100 0 847 248 
Q 594 497 594 1153 
L 594 3053 
L 172 3053 
L 172 3500 
L 594 3500 
L 594 4494 
L 1172 4494 
z
" transform="scale(0.015625)"/>
      <path id="DejaVuSans-61" d="M 2194 1759 
Q 1497 1759 1228 1600 
Q 959 1441 959 1056 
Q 959 750 1161 570 
Q 1363 391 1709 391 
Q 2188 391 2477 730 
Q 2766 1069 2766 1631 
L 2766 1759 
L 2194 1759 
z
M 3341 1997 
L 3341 0 
L 2766 0 
L 2766 531 
Q 2569 213 2275 61 
Q 1981 -91 1556 -91 
Q 1019 -91 701 211 
Q 384 513 384 1019 
Q 384 1609 779 1909 
Q 1175 2209 1959 2209 
L 2766 2209 
L 2766 2266 
Q 2766 2663 2505 2880 
Q 2244 3097 1772 3097 
Q 1472 3097 1187 3025 
Q 903 2953 641 2809 
L 641 3341 
Q 956 3463 1253 3523 
Q 1550 3584 1831 3584 
Q 2591 3584 2966 3190 
Q 3341 2797 3341 1997 
z
" transform="scale(0.015625)"/>
      <path id="DejaVuSans-69" d="M 603 3500 
L 1178 3500 
L 1178 0 
L 603 0 
L 603 3500 
z
M 603 4863 
L 1178 4863 
L 1178 4134 
L 603 4134 
L 603 4863 
z
" transform="scale(0.015625)"/>
      <path id="DejaVuSans-6e" d="M 3513 2113 
L 3513 0 
L 2938 0 
L 2938 2094 
Q 2938 2591 2744 2837 
Q 2550 3084 2163 3084 
Q 1697 3084 1428 2787 
Q 1159 2491 1159 1978 
L 1159 0 
L 581 0 
L 581 3500 
L 1159 3500 
L 1159 2956 
Q 1366 3272 1645 3428 
Q 1925 3584 2291 3584 
Q 2894 3584 3203 3211 
Q 3513 2838 3513 2113 
z
" transform="scale(0.015625)"/>
      <path id="DejaVuSans-20" transform="scale(0.015625)"/>
      <path id="DejaVuSans-63" d="M 3122 3366 
L 3122 2828 
Q 2878 2963 2633 3030 
Q 2388 3097 2138 3097 
Q 1578 3097 1268 2742 
Q 959 2388 959 1747 
Q 959 1106 1268 751 
Q 1578 397 2138 397 
Q 2388 397 2633 464 
Q 2878 531 3122 666 
L 3122 134 
Q 2881 22 2623 -34 
Q 2366 -91 2075 -91 
Q 1284 -91 818 406 
Q 353 903 353 1747 
Q 353 2603 823 3093 
Q 1294 3584 2113 3584 
Q 2378 3584 2631 3529 
Q 2884 3475 3122 3366 
z
" transform="scale(0.015625)"/>
      <path id="DejaVuSans-68" d="M 3513 2113 
L 3513 0 
L 2938 0 
L 2938 2094 
Q 2938 2591 2744 2837 
Q 2550 3084 2163 3084 
Q 1697 3084 1428 2787 
Q 1159 2491 1159 1978 
L 1159 0 
L 581 0 
L 581 4863 
L 1159 4863 
L 1159 2956 
Q 1366 3272 1645 3428 
Q 1925 3584 2291 3584 
Q 2894 3584 3203 3211 
Q 3513 2838 3513 2113 
z
" transform="scale(0.015625)"/>
      <path id="DejaVuSans-6b" d="M 581 4863 
L 1159 4863 
L 1159 1991 
L 2875 3500 
L 3609 3500 
L 1753 1863 
L 3688 0 
L 2938 0 
L 1159 1709 
L 1159 0 
L 581 0 
L 581 4863 
z
" transform="scale(0.015625)"/>
      <path id="DejaVuSans-70" d="M 1159 525 
L 1159 -1331 
L 581 -1331 
L 581 3500 
L 1159 3500 
L 1159 2969 
Q 1341 3281 1617 3432 
Q 1894 3584 2278 3584 
Q 2916 3584 3314 3078 
Q 3713 2572 3713 1747 
Q 3713 922 3314 415 
Q 2916 -91 2278 -91 
Q 1894 -91 1617 61 
Q 1341 213 1159 525 
z
M 3116 1747 
Q 3116 2381 2855 2742 
Q 2594 3103 2138 3103 
Q 1681 3103 1420 2742 
Q 1159 2381 1159 1747 
Q 1159 1113 1420 752 
Q 1681 391 2138 391 
Q 2594 391 2855 752 
Q 3116 1113 3116 1747 
z
" transform="scale(0.015625)"/>
      <path id="DejaVuSans-6f" d="M 1959 3097 
Q 1497 3097 1228 2736 
Q 959 2375 959 1747 
Q 959 1119 1226 758 
Q 1494 397 1959 397 
Q 2419 397 2687 759 
Q 2956 1122 2956 1747 
Q 2956 2369 2687 2733 
Q 2419 3097 1959 3097 
z
M 1959 3584 
Q 2709 3584 3137 3096 
Q 3566 2609 3566 1747 
Q 3566 888 3137 398 
Q 2709 -91 1959 -91 
Q 1206 -91 779 398 
Q 353 888 353 1747 
Q 353 2609 779 3096 
Q 1206 3584 1959 3584 
z
" transform="scale(0.015625)"/>
      <path id="DejaVuSans-73" d="M 2834 3397 
L 2834 2853 
Q 2591 2978 2328 3040 
Q 2066 3103 1784 3103 
Q 1356 3103 1142 2972 
Q 928 2841 928 2578 
Q 928 2378 1081 2264 
Q 1234 2150 1697 2047 
L 1894 2003 
Q 2506 1872 2764 1633 
Q 3022 1394 3022 966 
Q 3022 478 2636 193 
Q 2250 -91 1575 -91 
Q 1294 -91 989 -36 
Q 684 19 347 128 
L 347 722 
Q 666 556 975 473 
Q 1284 391 1588 391 
Q 1994 391 2212 530 
Q 2431 669 2431 922 
Q 2431 1156 2273 1281 
Q 2116 1406 1581 1522 
L 1381 1569 
Q 847 1681 609 1914 
Q 372 2147 372 2553 
Q 372 3047 722 3315 
Q 1072 3584 1716 3584 
Q 2034 3584 2315 3537 
Q 2597 3491 2834 3397 
z
" transform="scale(0.015625)"/>
      <path id="DejaVuSans-72" d="M 2631 2963 
Q 2534 3019 2420 3045 
Q 2306 3072 2169 3072 
Q 1681 3072 1420 2755 
Q 1159 2438 1159 1844 
L 1159 0 
L 581 0 
L 581 3500 
L 1159 3500 
L 1159 2956 
Q 1341 3275 1631 3429 
Q 1922 3584 2338 3584 
Q 2397 3584 2469 3576 
Q 2541 3569 2628 3553 
L 2631 2963 
z
" transform="scale(0.015625)"/>
      <path id="DejaVuSans-76" d="M 191 3500 
L 800 3500 
L 1894 563 
L 2988 3500 
L 3597 3500 
L 2284 0 
L 1503 0 
L 191 3500 
z
" transform="scale(0.015625)"/>
      <path id="DejaVuSans-75" d="M 544 1381 
L 544 3500 
L 1119 3500 
L 1119 1403 
Q 1119 906 1312 657 
Q 1506 409 1894 409 
Q 2359 409 2629 706 
Q 2900 1003 2900 1516 
L 2900 3500 
L 3475 3500 
L 3475 0 
L 2900 0 
L 2900 538 
Q 2691 219 2414 64 
Q 2138 -91 1772 -91 
Q 1169 -91 856 284 
Q 544 659 544 1381 
z
M 1991 3584 
L 1991 3584 
z
" transform="scale(0.015625)"/>
      <path id="DejaVuSans-2d" d="M 313 2009 
L 1997 2009 
L 1997 1497 
L 313 1497 
L 313 2009 
z
" transform="scale(0.015625)"/>
      <path id="DejaVuSans-64" d="M 2906 2969 
L 2906 4863 
L 3481 4863 
L 3481 0 
L 2906 0 
L 2906 525 
Q 2725 213 2448 61 
Q 2172 -91 1784 -91 
Q 1150 -91 751 415 
Q 353 922 353 1747 
Q 353 2572 751 3078 
Q 1150 3584 1784 3584 
Q 2172 3584 2448 3432 
Q 2725 3281 2906 2969 
z
M 947 1747 
Q 947 1113 1208 752 
Q 1469 391 1925 391 
Q 2381 391 2643 752 
Q 2906 1113 2906 1747 
Q 2906 2381 2643 2742 
Q 2381 3103 1925 3103 
Q 1469 3103 1208 2742 
Q 947 2381 947 1747 
z
" transform="scale(0.015625)"/>
      <path id="DejaVuSans-67" d="M 2906 1791 
Q 2906 2416 2648 2759 
Q 2391 3103 1925 3103 
Q 1463 3103 1205 2759 
Q 947 2416 947 1791 
Q 947 1169 1205 825 
Q 1463 481 1925 481 
Q 2391 481 2648 825 
Q 2906 1169 2906 1791 
z
M 3481 434 
Q 3481 -459 3084 -895 
Q 2688 -1331 1869 -1331 
Q 1566 -1331 1297 -1286 
Q 1028 -1241 775 -1147 
L 775 -588 
Q 1028 -725 1275 -790 
Q 1522 -856 1778 -856 
Q 2344 -856 2625 -561 
Q 2906 -266 2906 331 
L 2906 616 
Q 2728 306 2450 153 
Q 2172 0 1784 0 
Q 1141 0 747 490 
Q 353 981 353 1791 
Q 353 2603 747 3093 
Q 1141 3584 1784 3584 
Q 2172 3584 2450 3431 
Q 2728 3278 2906 2969 
L 2906 3500 
L 3481 3500 
L 3481 434 
z
" transform="scale(0.015625)"/>
      <path id="DejaVuSans-6d" d="M 3328 2828 
Q 3544 3216 3844 3400 
Q 4144 3584 4550 3584 
Q 5097 3584 5394 3201 
Q 5691 2819 5691 2113 
L 5691 0 
L 5113 0 
L 5113 2094 
Q 5113 2597 4934 2840 
Q 4756 3084 4391 3084 
Q 3944 3084 3684 2787 
Q 3425 2491 3425 1978 
L 3425 0 
L 2847 0 
L 2847 2094 
Q 2847 2600 2669 2842 
Q 2491 3084 2119 3084 
Q 1678 3084 1418 2786 
Q 1159 2488 1159 1978 
L 1159 0 
L 581 0 
L 581 3500 
L 1159 3500 
L 1159 2956 
Q 1356 3278 1631 3431 
Q 1906 3584 2284 3584 
Q 2666 3584 2933 3390 
Q 3200 3197 3328 2828 
z
" transform="scale(0.015625)"/>
      <path id="DejaVuSans-2c" d="M 750 794 
L 1409 794 
L 1409 256 
L 897 -744 
L 494 -744 
L 750 256 
L 750 794 
z
" transform="scale(0.015625)"/>
      <path id="DejaVuSans-6c" d="M 603 4863 
L 1178 4863 
L 1178 0 
L 603 0 
L 603 4863 
z
" transform="scale(0.015625)"/>
      <path id="DejaVuSans-79" d="M 2059 -325 
Q 1816 -950 1584 -1140 
Q 1353 -1331 966 -1331 
L 506 -1331 
L 506 -850 
L 844 -850 
Q 1081 -850 1212 -737 
Q 1344 -625 1503 -206 
L 1606 56 
L 191 3500 
L 800 3500 
L 1894 763 
L 2988 3500 
L 3597 3500 
L 2059 -325 
z
" transform="scale(0.015625)"/>
      <path id="DejaVuSans-6a" d="M 603 3500 
L 1178 3500 
L 1178 -63 
Q 1178 -731 923 -1031 
Q 669 -1331 103 -1331 
L -116 -1331 
L -116 -844 
L 38 -844 
Q 366 -844 484 -692 
Q 603 -541 603 -63 
L 603 3500 
z
M 603 4863 
L 1178 4863 
L 1178 4134 
L 603 4134 
L 603 4863 
z
" transform="scale(0.015625)"/>
      <path id="DejaVuSans-2e" d="M 684 794 
L 1344 794 
L 1344 0 
L 684 0 
L 684 794 
z
" transform="scale(0.015625)"/>
     </defs>
     <use xlink:href="#DejaVuSans-52"/>
     <use xlink:href="#DejaVuSans-65" x="64.982422"/>
     <use xlink:href="#DejaVuSans-74" x="126.505859"/>
     <use xlink:href="#DejaVuSans-61" x="165.714844"/>
     <use xlink:href="#DejaVuSans-69" x="226.994141"/>
     <use xlink:href="#DejaVuSans-6e" x="254.777344"/>
     <use xlink:href="#DejaVuSans-20" x="318.15625"/>
     <use xlink:href="#DejaVuSans-63" x="349.943359"/>
     <use xlink:href="#DejaVuSans-68" x="404.923828"/>
     <use xlink:href="#DejaVuSans-65" x="468.302734"/>
     <use xlink:href="#DejaVuSans-63" x="529.826172"/>
     <use xlink:href="#DejaVuSans-6b" x="584.806641"/>
     <use xlink:href="#DejaVuSans-70" x="642.716797"/>
     <use xlink:href="#DejaVuSans-6f" x="706.193359"/>
     <use xlink:href="#DejaVuSans-69" x="767.375"/>
     <use xlink:href="#DejaVuSans-6e" x="795.158203"/>
     <use xlink:href="#DejaVuSans-74" x="858.537109"/>
     <use xlink:href="#DejaVuSans-73" x="897.746094"/>
     <use xlink:href="#DejaVuSans-20" x="949.845703"/>
     <use xlink:href="#DejaVuSans-74" x="981.632812"/>
     <use xlink:href="#DejaVuSans-68" x="1020.841797"/>
     <use xlink:href="#DejaVuSans-61" x="1084.220703"/>
     <use xlink:href="#DejaVuSans-74" x="1145.5"/>
     <use xlink:href="#DejaVuSans-20" x="1184.708984"/>
     <use xlink:href="#DejaVuSans-70" x="1216.496094"/>
     <use xlink:href="#DejaVuSans-72" x="1279.972656"/>
     <use xlink:href="#DejaVuSans-65" x="1318.835938"/>
     <use xlink:href="#DejaVuSans-73" x="1380.359375"/>
     <use xlink:href="#DejaVuSans-65" x="1432.458984"/>
     <use xlink:href="#DejaVuSans-72" x="1493.982422"/>
     <use xlink:href="#DejaVuSans-76" x="1535.095703"/>
     <use xlink:href="#DejaVuSans-65" x="1594.275391"/>
     <use xlink:href="#DejaVuSans-20" x="1655.798828"/>
     <use xlink:href="#DejaVuSans-73" x="1687.585938"/>
     <use xlink:href="#DejaVuSans-6f" x="1739.685547"/>
     <use xlink:href="#DejaVuSans-75" x="1800.867188"/>
     <use xlink:href="#DejaVuSans-72" x="1864.246094"/>
     <use xlink:href="#DejaVuSans-63" x="1903.109375"/>
     <use xlink:href="#DejaVuSans-65" x="1958.089844"/>
     <use xlink:href="#DejaVuSans-2d" x="2019.613281"/>
     <use xlink:href="#DejaVuSans-73" x="2055.697266"/>
     <use xlink:href="#DejaVuSans-75" x="2107.796875"/>
     <use xlink:href="#DejaVuSans-70" x="2171.175781"/>
     <use xlink:href="#DejaVuSans-70" x="2234.652344"/>
     <use xlink:href="#DejaVuSans-6f" x="2298.128906"/>
     <use xlink:href="#DejaVuSans-72" x="2359.310547"/>
     <use xlink:href="#DejaVuSans-74" x="2400.423828"/>
     <use xlink:href="#DejaVuSans-20" x="2439.632812"/>
     <use xlink:href="#DejaVuSans-64" x="2471.419922"/>
     <use xlink:href="#DejaVuSans-69" x="2534.896484"/>
     <use xlink:href="#DejaVuSans-73" x="2562.679688"/>
     <use xlink:href="#DejaVuSans-61" x="2614.779297"/>
     <use xlink:href="#DejaVuSans-67" x="2676.058594"/>
     <use xlink:href="#DejaVuSans-72" x="2739.535156"/>
     <use xlink:href="#DejaVuSans-65" x="2778.398438"/>
     <use xlink:href="#DejaVuSans-65" x="2839.921875"/>
     <use xlink:href="#DejaVuSans-6d" x="2901.445312"/>
     <use xlink:href="#DejaVuSans-65" x="2998.857422"/>
     <use xlink:href="#DejaVuSans-6e" x="3060.380859"/>
     <use xlink:href="#DejaVuSans-74" x="3123.759766"/>
     <use xlink:href="#DejaVuSans-2c" x="3162.96875"/>
     <use xlink:href="#DejaVuSans-20" x="3194.755859"/>
     <use xlink:href="#DejaVuSans-6e" x="3226.542969"/>
     <use xlink:href="#DejaVuSans-6f" x="3289.921875"/>
     <use xlink:href="#DejaVuSans-74" x="3351.103516"/>
     <use xlink:href="#DejaVuSans-20" x="3390.3125"/>
     <use xlink:href="#DejaVuSans-6d" x="3422.099609"/>
     <use xlink:href="#DejaVuSans-65" x="3519.511719"/>
     <use xlink:href="#DejaVuSans-72" x="3581.035156"/>
     <use xlink:href="#DejaVuSans-65" x="3619.898438"/>
     <use xlink:href="#DejaVuSans-6c" x="3681.421875"/>
     <use xlink:href="#DejaVuSans-79" x="3709.205078"/>
     <use xlink:href="#DejaVuSans-20" x="3768.384766"/>
     <use xlink:href="#DejaVuSans-61" x="3800.171875"/>
     <use xlink:href="#DejaVuSans-64" x="3861.451172"/>
     <use xlink:href="#DejaVuSans-6a" x="3924.927734"/>
     <use xlink:href="#DejaVuSans-61" x="3952.710938"/>
     <use xlink:href="#DejaVuSans-63" x="4013.990234"/>
     <use xlink:href="#DejaVuSans-65" x="4068.970703"/>
     <use xlink:href="#DejaVuSans-6e" x="4130.494141"/>
     <use xlink:href="#DejaVuSans-74" x="4193.873047"/>
     <use xlink:href="#DejaVuSans-20" x="4233.082031"/>
     <use xlink:href="#DejaVuSans-74" x="4264.869141"/>
     <use xlink:href="#DejaVuSans-69" x="4304.078125"/>
     <use xlink:href="#DejaVuSans-6d" x="4331.861328"/>
     <use xlink:href="#DejaVuSans-65" x="4429.273438"/>
     <use xlink:href="#DejaVuSans-20" x="4490.796875"/>
     <use xlink:href="#DejaVuSans-73" x="4522.583984"/>
     <use xlink:href="#DejaVuSans-74" x="4574.683594"/>
     <use xlink:href="#DejaVuSans-65" x="4613.892578"/>
     <use xlink:href="#DejaVuSans-70" x="4675.416016"/>
     <use xlink:href="#DejaVuSans-73" x="4738.892578"/>
     <use xlink:href="#DejaVuSans-2e" x="4790.992188"/>
    </g>
   </g>
   <g id="text_3">
    <!-- checkpoint bank -->
    <g style="fill: #182033" transform="translate(56.34 132.3648) scale(0.1 -0.1)">
     <defs>
      <path id="DejaVuSans-62" d="M 3116 1747 
Q 3116 2381 2855 2742 
Q 2594 3103 2138 3103 
Q 1681 3103 1420 2742 
Q 1159 2381 1159 1747 
Q 1159 1113 1420 752 
Q 1681 391 2138 391 
Q 2594 391 2855 752 
Q 3116 1113 3116 1747 
z
M 1159 2969 
Q 1341 3281 1617 3432 
Q 1894 3584 2278 3584 
Q 2916 3584 3314 3078 
Q 3713 2572 3713 1747 
Q 3713 922 3314 415 
Q 2916 -91 2278 -91 
Q 1894 -91 1617 61 
Q 1341 213 1159 525 
L 1159 0 
L 581 0 
L 581 4863 
L 1159 4863 
L 1159 2969 
z
" transform="scale(0.015625)"/>
     </defs>
     <use xlink:href="#DejaVuSans-63"/>
     <use xlink:href="#DejaVuSans-68" x="54.980469"/>
     <use xlink:href="#DejaVuSans-65" x="118.359375"/>
     <use xlink:href="#DejaVuSans-63" x="179.882812"/>
     <use xlink:href="#DejaVuSans-6b" x="234.863281"/>
     <use xlink:href="#DejaVuSans-70" x="292.773438"/>
     <use xlink:href="#DejaVuSans-6f" x="356.25"/>
     <use xlink:href="#DejaVuSans-69" x="417.431641"/>
     <use xlink:href="#DejaVuSans-6e" x="445.214844"/>
     <use xlink:href="#DejaVuSans-74" x="508.59375"/>
     <use xlink:href="#DejaVuSans-20" x="547.802734"/>
     <use xlink:href="#DejaVuSans-62" x="579.589844"/>
     <use xlink:href="#DejaVuSans-61" x="643.066406"/>
     <use xlink:href="#DejaVuSans-6e" x="704.345703"/>
     <use xlink:href="#DejaVuSans-6b" x="767.724609"/>
    </g>
   </g>
   <g id="text_4">
    <!-- selected family -->
    <g style="fill: #0d776a" transform="translate(274.95 132.3648) scale(0.1 -0.1)">
     <defs>
      <path id="DejaVuSans-66" d="M 2375 4863 
L 2375 4384 
L 1825 4384 
Q 1516 4384 1395 4259 
Q 1275 4134 1275 3809 
L 1275 3500 
L 2222 3500 
L 2222 3053 
L 1275 3053 
L 1275 0 
L 697 0 
L 697 3053 
L 147 3053 
L 147 3500 
L 697 3500 
L 697 3744 
Q 697 4328 969 4595 
Q 1241 4863 1831 4863 
L 2375 4863 
z
" transform="scale(0.015625)"/>
     </defs>
     <use xlink:href="#DejaVuSans-73"/>
     <use xlink:href="#DejaVuSans-65" x="52.099609"/>
     <use xlink:href="#DejaVuSans-6c" x="113.623047"/>
     <use xlink:href="#DejaVuSans-65" x="141.40625"/>
     <use xlink:href="#DejaVuSans-63" x="202.929688"/>
     <use xlink:href="#DejaVuSans-74" x="257.910156"/>
     <use xlink:href="#DejaVuSans-65" x="297.119141"/>
     <use xlink:href="#DejaVuSans-64" x="358.642578"/>
     <use xlink:href="#DejaVuSans-20" x="422.119141"/>
     <use xlink:href="#DejaVuSans-66" x="453.90625"/>
     <use xlink:href="#DejaVuSans-61" x="489.111328"/>
     <use xlink:href="#DejaVuSans-6d" x="550.390625"/>
     <use xlink:href="#DejaVuSans-69" x="647.802734"/>
     <use xlink:href="#DejaVuSans-6c" x="675.585938"/>
     <use xlink:href="#DejaVuSans-79" x="703.369141"/>
    </g>
   </g>
   <g id="text_5">
    <!-- full bank -->
    <g style="fill: #667085" transform="translate(29.25 178.416) scale(0.1 -0.1)">
     <use xlink:href="#DejaVuSans-66"/>
     <use xlink:href="#DejaVuSans-75" x="35.205078"/>
     <use xlink:href="#DejaVuSans-6c" x="98.583984"/>
     <use xlink:href="#DejaVuSans-6c" x="126.367188"/>
     <use xlink:href="#DejaVuSans-20" x="154.150391"/>
     <use xlink:href="#DejaVuSans-62" x="185.9375"/>
     <use xlink:href="#DejaVuSans-61" x="249.414062"/>
     <use xlink:href="#DejaVuSans-6e" x="310.693359"/>
     <use xlink:href="#DejaVuSans-6b" x="374.072266"/>
    </g>
   </g>
   <g id="text_6">
    <!-- retained -->
    <g style="fill: #667085" transform="translate(29.25 206.1648) scale(0.1 -0.1)">
     <use xlink:href="#DejaVuSans-72"/>
     <use xlink:href="#DejaVuSans-65" x="38.863281"/>
     <use xlink:href="#DejaVuSans-74" x="100.386719"/>
     <use xlink:href="#DejaVuSans-61" x="139.595703"/>
     <use xlink:href="#DejaVuSans-69" x="200.875"/>
     <use xlink:href="#DejaVuSans-6e" x="228.658203"/>
     <use xlink:href="#DejaVuSans-65" x="292.037109"/>
     <use xlink:href="#DejaVuSans-64" x="353.560547"/>
    </g>
   </g>
   <g id="text_7">
    <!-- family size -->
    <g style="fill: #182033" transform="translate(539.55 89.072975) scale(0.1 -0.1)">
     <defs>
      <path id="DejaVuSans-7a" d="M 353 3500 
L 3084 3500 
L 3084 2975 
L 922 459 
L 3084 459 
L 3084 0 
L 275 0 
L 275 525 
L 2438 3041 
L 353 3041 
L 353 3500 
z
" transform="scale(0.015625)"/>
     </defs>
     <use xlink:href="#DejaVuSans-66"/>
     <use xlink:href="#DejaVuSans-61" x="35.205078"/>
     <use xlink:href="#DejaVuSans-6d" x="96.484375"/>
     <use xlink:href="#DejaVuSans-69" x="193.896484"/>
     <use xlink:href="#DejaVuSans-6c" x="221.679688"/>
     <use xlink:href="#DejaVuSans-79" x="249.462891"/>
     <use xlink:href="#DejaVuSans-20" x="308.642578"/>
     <use xlink:href="#DejaVuSans-73" x="340.429688"/>
     <use xlink:href="#DejaVuSans-69" x="392.529297"/>
     <use xlink:href="#DejaVuSans-7a" x="420.3125"/>
     <use xlink:href="#DejaVuSans-65" x="472.802734"/>
    </g>
   </g>
   <g id="text_8">
    <!-- 19.8 -->
    <g style="fill: #0d776a" transform="translate(661.668125 89.072975) scale(0.1 -0.1)">
     <defs>
      <path id="DejaVuSans-Bold-31" d="M 750 831 
L 1813 831 
L 1813 3847 
L 722 3622 
L 722 4441 
L 1806 4666 
L 2950 4666 
L 2950 831 
L 4013 831 
L 4013 0 
L 750 0 
L 750 831 
z
" transform="scale(0.015625)"/>
      <path id="DejaVuSans-Bold-39" d="M 641 103 
L 641 966 
Q 928 831 1190 764 
Q 1453 697 1709 697 
Q 2247 697 2547 995 
Q 2847 1294 2900 1881 
Q 2688 1725 2447 1647 
Q 2206 1569 1925 1569 
Q 1209 1569 770 1986 
Q 331 2403 331 3084 
Q 331 3838 820 4291 
Q 1309 4744 2131 4744 
Q 3044 4744 3544 4128 
Q 4044 3513 4044 2388 
Q 4044 1231 3459 570 
Q 2875 -91 1856 -91 
Q 1528 -91 1228 -42 
Q 928 6 641 103 
z
M 2125 2350 
Q 2441 2350 2600 2554 
Q 2759 2759 2759 3169 
Q 2759 3575 2600 3781 
Q 2441 3988 2125 3988 
Q 1809 3988 1650 3781 
Q 1491 3575 1491 3169 
Q 1491 2759 1650 2554 
Q 1809 2350 2125 2350 
z
" transform="scale(0.015625)"/>
      <path id="DejaVuSans-Bold-2e" d="M 653 1209 
L 1778 1209 
L 1778 0 
L 653 0 
L 653 1209 
z
" transform="scale(0.015625)"/>
      <path id="DejaVuSans-Bold-38" d="M 2228 2088 
Q 1891 2088 1709 1903 
Q 1528 1719 1528 1375 
Q 1528 1031 1709 848 
Q 1891 666 2228 666 
Q 2563 666 2741 848 
Q 2919 1031 2919 1375 
Q 2919 1722 2741 1905 
Q 2563 2088 2228 2088 
z
M 1350 2484 
Q 925 2613 709 2878 
Q 494 3144 494 3541 
Q 494 4131 934 4440 
Q 1375 4750 2228 4750 
Q 3075 4750 3515 4442 
Q 3956 4134 3956 3541 
Q 3956 3144 3739 2878 
Q 3522 2613 3097 2484 
Q 3572 2353 3814 2058 
Q 4056 1763 4056 1313 
Q 4056 619 3595 264 
Q 3134 -91 2228 -91 
Q 1319 -91 855 264 
Q 391 619 391 1313 
Q 391 1763 633 2058 
Q 875 2353 1350 2484 
z
M 1631 3419 
Q 1631 3141 1786 2991 
Q 1941 2841 2228 2841 
Q 2509 2841 2662 2991 
Q 2816 3141 2816 3419 
Q 2816 3697 2662 3845 
Q 2509 3994 2228 3994 
Q 1941 3994 1786 3844 
Q 1631 3694 1631 3419 
z
" transform="scale(0.015625)"/>
     </defs>
     <use xlink:href="#DejaVuSans-Bold-31"/>
     <use xlink:href="#DejaVuSans-Bold-39" x="69.580078"/>
     <use xlink:href="#DejaVuSans-Bold-2e" x="139.160156"/>
     <use xlink:href="#DejaVuSans-Bold-38" x="177.148438"/>
    </g>
   </g>
   <g id="text_9">
    <!-- mask mismatch -->
    <g style="fill: #182033" transform="translate(539.55 135.124175) scale(0.1 -0.1)">
     <use xlink:href="#DejaVuSans-6d"/>
     <use xlink:href="#DejaVuSans-61" x="97.412109"/>
     <use xlink:href="#DejaVuSans-73" x="158.691406"/>
     <use xlink:href="#DejaVuSans-6b" x="210.791016"/>
     <use xlink:href="#DejaVuSans-20" x="268.701172"/>
     <use xlink:href="#DejaVuSans-6d" x="300.488281"/>
     <use xlink:href="#DejaVuSans-69" x="397.900391"/>
     <use xlink:href="#DejaVuSans-73" x="425.683594"/>
     <use xlink:href="#DejaVuSans-6d" x="477.783203"/>
     <use xlink:href="#DejaVuSans-61" x="575.195312"/>
     <use xlink:href="#DejaVuSans-74" x="636.474609"/>
     <use xlink:href="#DejaVuSans-63" x="675.683594"/>
     <use xlink:href="#DejaVuSans-68" x="730.664062"/>
    </g>
   </g>
   <g id="text_10">
    <!-- 4.7% -->
    <g style="fill: #b85c2e" transform="translate(658.605625 135.124175) scale(0.1 -0.1)">
     <defs>
      <path id="DejaVuSans-Bold-34" d="M 2356 3675 
L 1038 1722 
L 2356 1722 
L 2356 3675 
z
M 2156 4666 
L 3494 4666 
L 3494 1722 
L 4159 1722 
L 4159 850 
L 3494 850 
L 3494 0 
L 2356 0 
L 2356 850 
L 288 850 
L 288 1881 
L 2156 4666 
z
" transform="scale(0.015625)"/>
      <path id="DejaVuSans-Bold-37" d="M 428 4666 
L 3944 4666 
L 3944 3988 
L 2125 0 
L 953 0 
L 2675 3781 
L 428 3781 
L 428 4666 
z
" transform="scale(0.015625)"/>
      <path id="DejaVuSans-Bold-25" d="M 4959 1925 
Q 4738 1925 4616 1733 
Q 4494 1541 4494 1184 
Q 4494 825 4614 633 
Q 4734 441 4959 441 
Q 5184 441 5303 633 
Q 5422 825 5422 1184 
Q 5422 1541 5301 1733 
Q 5181 1925 4959 1925 
z
M 4959 2450 
Q 5541 2450 5875 2112 
Q 6209 1775 6209 1184 
Q 6209 594 5875 251 
Q 5541 -91 4959 -91 
Q 4378 -91 4042 251 
Q 3706 594 3706 1184 
Q 3706 1772 4042 2111 
Q 4378 2450 4959 2450 
z
M 2094 -91 
L 1403 -91 
L 4319 4750 
L 5013 4750 
L 2094 -91 
z
M 1453 4750 
Q 2034 4750 2367 4411 
Q 2700 4072 2700 3481 
Q 2700 2891 2367 2550 
Q 2034 2209 1453 2209 
Q 872 2209 539 2550 
Q 206 2891 206 3481 
Q 206 4072 539 4411 
Q 872 4750 1453 4750 
z
M 1453 4225 
Q 1228 4225 1106 4031 
Q 984 3838 984 3481 
Q 984 3122 1106 2926 
Q 1228 2731 1453 2731 
Q 1678 2731 1798 2926 
Q 1919 3122 1919 3481 
Q 1919 3838 1797 4031 
Q 1675 4225 1453 4225 
z
" transform="scale(0.015625)"/>
     </defs>
     <use xlink:href="#DejaVuSans-Bold-34"/>
     <use xlink:href="#DejaVuSans-Bold-2e" x="69.580078"/>
     <use xlink:href="#DejaVuSans-Bold-37" x="107.568359"/>
     <use xlink:href="#DejaVuSans-Bold-25" x="177.148438"/>
    </g>
   </g>
   <g id="text_11">
    <!-- kept non-contiguous -->
    <g style="fill: #182033" transform="translate(539.55 181.175375) scale(0.1 -0.1)">
     <use xlink:href="#DejaVuSans-6b"/>
     <use xlink:href="#DejaVuSans-65" x="54.285156"/>
     <use xlink:href="#DejaVuSans-70" x="115.808594"/>
     <use xlink:href="#DejaVuSans-74" x="179.285156"/>
     <use xlink:href="#DejaVuSans-20" x="218.494141"/>
     <use xlink:href="#DejaVuSans-6e" x="250.28125"/>
     <use xlink:href="#DejaVuSans-6f" x="313.660156"/>
     <use xlink:href="#DejaVuSans-6e" x="374.841797"/>
     <use xlink:href="#DejaVuSans-2d" x="438.220703"/>
     <use xlink:href="#DejaVuSans-63" x="474.304688"/>
     <use xlink:href="#DejaVuSans-6f" x="529.285156"/>
     <use xlink:href="#DejaVuSans-6e" x="590.466797"/>
     <use xlink:href="#DejaVuSans-74" x="653.845703"/>
     <use xlink:href="#DejaVuSans-69" x="693.054688"/>
     <use xlink:href="#DejaVuSans-67" x="720.837891"/>
     <use xlink:href="#DejaVuSans-75" x="784.314453"/>
     <use xlink:href="#DejaVuSans-6f" x="847.693359"/>
     <use xlink:href="#DejaVuSans-75" x="908.875"/>
     <use xlink:href="#DejaVuSans-73" x="972.253906"/>
    </g>
   </g>
   <g id="text_12">
    <!-- yes -->
    <g style="fill: #3658c7" transform="translate(667.086875 181.09725) scale(0.1 -0.1)">
     <defs>
      <path id="DejaVuSans-Bold-79" d="M 78 3500 
L 1197 3500 
L 2138 1125 
L 2938 3500 
L 4056 3500 
L 2584 -331 
Q 2363 -916 2067 -1148 
Q 1772 -1381 1288 -1381 
L 641 -1381 
L 641 -647 
L 991 -647 
Q 1275 -647 1404 -556 
Q 1534 -466 1606 -231 
L 1638 -134 
L 78 3500 
z
" transform="scale(0.015625)"/>
     </defs>
     <use xlink:href="#DejaVuSans-Bold-79"/>
     <use xlink:href="#DejaVuSans-Bold-65" x="65.185547"/>
     <use xlink:href="#DejaVuSans-Bold-73" x="133.007812"/>
    </g>
   </g>
   <g id="text_13">
    <!-- objective: minimize $d_{\rm vsc}(S,\mathcal{B};\gamma)$ -->
    <g style="fill: #667085" transform="translate(530.1 242.1792) scale(0.1 -0.1)">
     <defs>
      <path id="DejaVuSans-3a" d="M 750 794 
L 1409 794 
L 1409 0 
L 750 0 
L 750 794 
z
M 750 3309 
L 1409 3309 
L 1409 2516 
L 750 2516 
L 750 3309 
z
" transform="scale(0.015625)"/>
      <path id="DejaVuSans-Oblique-64" d="M 2675 525 
Q 2444 222 2128 65 
Q 1813 -91 1428 -91 
Q 903 -91 598 267 
Q 294 625 294 1247 
Q 294 1766 478 2236 
Q 663 2706 1013 3078 
Q 1244 3325 1534 3454 
Q 1825 3584 2144 3584 
Q 2481 3584 2739 3421 
Q 2997 3259 3138 2956 
L 3513 4863 
L 4091 4863 
L 3144 0 
L 2566 0 
L 2675 525 
z
M 891 1350 
Q 891 897 1095 644 
Q 1300 391 1663 391 
Q 1931 391 2161 520 
Q 2391 650 2566 903 
Q 2750 1166 2856 1509 
Q 2963 1853 2963 2188 
Q 2963 2622 2758 2865 
Q 2553 3109 2194 3109 
Q 1922 3109 1687 2981 
Q 1453 2853 1288 2613 
Q 1106 2353 998 2009 
Q 891 1666 891 1350 
z
" transform="scale(0.015625)"/>
      <path id="DejaVuSans-28" d="M 1984 4856 
Q 1566 4138 1362 3434 
Q 1159 2731 1159 2009 
Q 1159 1288 1364 580 
Q 1569 -128 1984 -844 
L 1484 -844 
Q 1016 -109 783 600 
Q 550 1309 550 2009 
Q 550 2706 781 3412 
Q 1013 4119 1484 4856 
L 1984 4856 
z
" transform="scale(0.015625)"/>
      <path id="DejaVuSans-Oblique-53" d="M 3859 4513 
L 3738 3897 
Q 3422 4066 3111 4152 
Q 2800 4238 2509 4238 
Q 1944 4238 1609 3991 
Q 1275 3744 1275 3334 
Q 1275 3109 1398 2989 
Q 1522 2869 2034 2731 
L 2413 2638 
Q 3053 2472 3303 2217 
Q 3553 1963 3553 1503 
Q 3553 797 2998 353 
Q 2444 -91 1538 -91 
Q 1166 -91 791 -17 
Q 416 56 38 206 
L 166 856 
Q 513 641 861 531 
Q 1209 422 1556 422 
Q 2147 422 2503 684 
Q 2859 947 2859 1369 
Q 2859 1650 2717 1795 
Q 2575 1941 2106 2059 
L 1728 2156 
Q 1081 2325 845 2545 
Q 609 2766 609 3163 
Q 609 3859 1145 4304 
Q 1681 4750 2541 4750 
Q 2875 4750 3203 4690 
Q 3531 4631 3859 4513 
z
" transform="scale(0.015625)"/>
      <path id="STIXNonUnicode-Italic-e22e" d="M 2080 3341 
L 2099 3328 
Q 2810 4288 3853 4288 
Q 4154 4288 4346 4102 
Q 4538 3917 4538 3622 
Q 4538 3213 4173 2893 
Q 3808 2573 3430 2451 
Q 3866 2406 4144 2169 
Q 4422 1933 4422 1485 
Q 4422 1152 4211 857 
Q 4000 563 3677 377 
Q 3354 192 2986 86 
Q 2618 -19 2291 -19 
Q 1792 -19 1517 186 
L 1587 326 
Q 1843 198 2272 198 
Q 2854 198 3296 595 
Q 3738 992 3738 1478 
Q 3738 1798 3459 2003 
Q 3181 2208 2630 2208 
L 2208 2208 
L 2278 2451 
L 2400 2451 
Q 2611 2451 2867 2508 
Q 3123 2566 3385 2681 
Q 3648 2797 3824 3008 
Q 4000 3219 4000 3482 
Q 4000 3987 3456 3987 
Q 3245 3987 3008 3865 
Q 2771 3744 2624 3590 
Q 2349 3315 2144 2908 
Q 1939 2502 1715 1728 
L 1478 909 
Q 1344 448 1193 253 
Q 1043 58 666 13 
Q 544 0 224 0 
L 282 154 
Q 474 154 576 333 
Q 678 512 870 1190 
L 1536 3514 
Q 1555 3571 1555 3667 
Q 1555 3859 1286 3859 
L 1146 3859 
L 1171 4013 
Q 1875 4077 2355 4237 
L 2080 3341 
z
" transform="scale(0.015625)"/>
      <path id="DejaVuSans-3b" d="M 750 3309 
L 1409 3309 
L 1409 2516 
L 750 2516 
L 750 3309 
z
M 750 794 
L 1409 794 
L 1409 256 
L 897 -744 
L 494 -744 
L 750 256 
L 750 794 
z
" transform="scale(0.015625)"/>
      <path id="DejaVuSans-Oblique-3b3" d="M 1491 2950 
L 1838 788 
L 3456 3500 
L 4066 3500 
L 1972 0 
L 1713 -1331 
L 1138 -1331 
L 1397 0 
L 988 2613 
Q 925 3006 628 3006 
L 475 3006 
L 569 3500 
L 788 3500 
Q 1403 3500 1491 2950 
z
" transform="scale(0.015625)"/>
      <path id="DejaVuSans-29" d="M 513 4856 
L 1013 4856 
Q 1481 4119 1714 3412 
Q 1947 2706 1947 2009 
Q 1947 1309 1714 600 
Q 1481 -109 1013 -844 
L 513 -844 
Q 928 -128 1133 580 
Q 1338 1288 1338 2009 
Q 1338 2731 1133 3434 
Q 928 4138 513 4856 
z
" transform="scale(0.015625)"/>
     </defs>
     <use xlink:href="#DejaVuSans-6f" transform="translate(0 0.015625)"/>
     <use xlink:href="#DejaVuSans-62" transform="translate(61.181641 0.015625)"/>
     <use xlink:href="#DejaVuSans-6a" transform="translate(124.658203 0.015625)"/>
     <use xlink:href="#DejaVuSans-65" transform="translate(152.441406 0.015625)"/>
     <use xlink:href="#DejaVuSans-63" transform="translate(213.964844 0.015625)"/>
     <use xlink:href="#DejaVuSans-74" transform="translate(268.945312 0.015625)"/>
     <use xlink:href="#DejaVuSans-69" transform="translate(308.154297 0.015625)"/>
     <use xlink:href="#DejaVuSans-76" transform="translate(335.9375 0.015625)"/>
     <use xlink:href="#DejaVuSans-65" transform="translate(395.117188 0.015625)"/>
     <use xlink:href="#DejaVuSans-3a" transform="translate(456.640625 0.015625)"/>
     <use xlink:href="#DejaVuSans-20" transform="translate(490.332031 0.015625)"/>
     <use xlink:href="#DejaVuSans-6d" transform="translate(522.119141 0.015625)"/>
     <use xlink:href="#DejaVuSans-69" transform="translate(619.53125 0.015625)"/>
     <use xlink:href="#DejaVuSans-6e" transform="translate(647.314453 0.015625)"/>
     <use xlink:href="#DejaVuSans-69" transform="translate(710.693359 0.015625)"/>
     <use xlink:href="#DejaVuSans-6d" transform="translate(738.476562 0.015625)"/>
     <use xlink:href="#DejaVuSans-69" transform="translate(835.888672 0.015625)"/>
     <use xlink:href="#DejaVuSans-7a" transform="translate(863.671875 0.015625)"/>
     <use xlink:href="#DejaVuSans-65" transform="translate(916.162109 0.015625)"/>
     <use xlink:href="#DejaVuSans-20" transform="translate(977.685547 0.015625)"/>
     <use xlink:href="#DejaVuSans-Oblique-64" transform="translate(1009.472656 0.015625)"/>
     <use xlink:href="#DejaVuSans-76" transform="translate(1072.949219 -16.390625) scale(0.7)"/>
     <use xlink:href="#DejaVuSans-73" transform="translate(1114.375 -16.390625) scale(0.7)"/>
     <use xlink:href="#DejaVuSans-63" transform="translate(1150.844727 -16.390625) scale(0.7)"/>
     <use xlink:href="#DejaVuSans-28" transform="translate(1192.06543 0.015625)"/>
     <use xlink:href="#DejaVuSans-Oblique-53" transform="translate(1231.079102 0.015625)"/>
     <use xlink:href="#DejaVuSans-2c" transform="translate(1294.555664 0.015625)"/>
     <use xlink:href="#STIXNonUnicode-Italic-e22e" transform="translate(1345.825195 0.015625)"/>
     <use xlink:href="#DejaVuSans-3b" transform="translate(1418.225189 0.015625)"/>
     <use xlink:href="#DejaVuSans-Oblique-3b3" transform="translate(1471.399017 0.015625)"/>
     <use xlink:href="#DejaVuSans-29" transform="translate(1530.578705 0.015625)"/>
    </g>
   </g>
  </g>
 </g>
 <defs>
  <clipPath id="p440ad2ea96">
   <rect x="7.2" y="7.2" width="756" height="295.2"/>
  </clipPath>
 </defs>
</svg>
